<svg version="1.1" xmlns="http://www.w3.org/2000/svg" viewBox="0 0 859.6885461773636 454.83433219648396" width="859.6885461773636" height="454.83433219648396"><!-- svg-source:excalidraw --><metadata></metadata><defs><style class="style-fonts">
      </style></defs><rect x="0" y="0" width="859.6885461773636" height="454.83433219648396" fill="#ffffff"></rect><g stroke-linecap="round" transform="translate(10 10) rotate(0 419.8442730886818 217.41716609824198)"><path d="M32 0 C312.74 0.6, 592.24 1.69, 807.69 0 M32 0 C206.05 -1.44, 380.08 -1.05, 807.69 0 M807.69 0 C828.87 1.39, 840.17 11.27, 839.69 32 M807.69 0 C829.11 -0.49, 838.88 11.66, 839.69 32 M839.69 32 C836.31 162.38, 836.95 293.93, 839.69 402.83 M839.69 32 C841.25 147.64, 841.24 263.61, 839.69 402.83 M839.69 402.83 C840.88 422.92, 829.08 433.18, 807.69 434.83 M839.69 402.83 C839.42 422.35, 831.31 432.89, 807.69 434.83 M807.69 434.83 C624.12 431.75, 440.92 431.78, 32 434.83 M807.69 434.83 C578.34 437.12, 348.91 437.33, 32 434.83 M32 434.83 C10.8 436.4, -0.82 424.24, 0 402.83 M32 434.83 C12.25 436.34, 0.1 426.02, 0 402.83 M0 402.83 C0.83 273.4, 0.54 140.9, 0 32 M0 402.83 C-1.1 308.77, -1.36 214.43, 0 32 M0 32 C0.53 10.01, 10.79 -1.12, 32 0 M0 32 C1.31 8.73, 12.18 1.53, 32 0" stroke="#1e1e1e" stroke-width="2" fill="none"></path></g><g transform="translate(64.73670663163648 52.05186724759551) rotate(0 36 20.699999999999818)"><text x="0" y="30.420703125" font-family="Helvetica, Segoe UI Emoji" font-size="36px" fill="#1e1e1e" text-anchor="start" style="white-space: pre;" direction="ltr" dominant-baseline="alphabetic">程式</text></g><g stroke-linecap="round" transform="translate(138.14814538697829 79.77581296761309) rotate(0 153.35535521179554 155.2344771408525)"><path d="M187.95 3.61 C203.05 4.44, 218.65 13.39, 232.25 21.52 C245.85 29.66, 259.07 40.15, 269.55 52.41 C280.02 64.67, 289.11 80.28, 295.11 95.08 C301.1 109.88, 304.37 125.36, 305.52 141.2 C306.68 157.04, 305.5 174.54, 302.05 190.14 C298.6 205.74, 292.84 221.07, 284.81 234.8 C276.78 248.54, 265.81 261.85, 253.85 272.52 C241.89 283.2, 227.54 292.55, 213.07 298.86 C198.6 305.18, 182.77 309.15, 167.03 310.42 C151.29 311.68, 134.17 310.28, 118.63 306.45 C103.08 302.61, 87.37 295.76, 73.77 287.39 C60.17 279.03, 47.27 268.02, 37.01 256.27 C26.74 244.51, 18.32 231.43, 12.18 216.87 C6.05 202.31, 1.58 185.05, 0.19 168.9 C-1.2 152.75, 0.23 135.7, 3.82 119.98 C7.42 104.27, 13.78 88.26, 21.75 74.6 C29.71 60.95, 39.85 48.58, 51.63 38.05 C63.4 27.52, 77.73 17.83, 92.4 11.42 C107.07 5.02, 120.17 -0.33, 139.66 -0.38 C159.15 -0.42, 194.87 7.39, 209.34 11.16 C223.8 14.93, 227.35 19.75, 226.46 22.22 M174.64 0.09 C189.88 -0.44, 206.29 8.62, 220.64 15.85 C235 23.09, 249.34 32.16, 260.77 43.51 C272.19 54.85, 282.06 69.46, 289.19 83.91 C296.31 98.35, 300.76 114.62, 303.5 130.17 C306.24 145.72, 307.53 161.61, 305.62 177.21 C303.72 192.81, 299.09 209.3, 292.09 223.79 C285.08 238.29, 274.94 252.61, 263.6 264.17 C252.26 275.72, 237.84 285.57, 224.05 293.13 C210.25 300.7, 196.24 306.86, 180.84 309.57 C165.44 312.27, 147.53 311.84, 131.66 309.35 C115.78 306.87, 99.73 301.79, 85.59 294.66 C71.46 287.53, 58.13 277.66, 46.84 266.58 C35.55 255.5, 25.48 242.14, 17.85 228.18 C10.22 214.21, 3.66 198.51, 1.06 182.8 C-1.55 167.08, 0 149.99, 2.22 133.88 C4.44 117.77, 7.67 100.41, 14.37 86.15 C21.07 71.88, 31.26 59.45, 42.44 48.27 C53.63 37.1, 67.47 26.75, 81.49 19.09 C95.51 11.44, 110.95 5.18, 126.58 2.34 C142.2 -0.5, 167.46 1.56, 175.25 2.04 C183.03 2.52, 173.58 2.91, 173.28 5.22" stroke="#1e1e1e" stroke-width="2" fill="none"></path></g><g transform="translate(255.56488899723627 214.5429386482192) rotate(0 36 20.699999999999818)"><text x="36" y="30.420703125" font-family="Helvetica, Segoe UI Emoji" font-size="36px" fill="#1e1e1e" text-anchor="middle" style="white-space: pre;" direction="ltr" dominant-baseline="alphabetic">資料</text></g><g stroke-linecap="round" transform="translate(409.14070825767703 75.33753517667174) rotate(0 153.35535521179554 155.2344771408525)"><path d="M109.89 6.23 C123.44 -0.47, 141.01 -0.12, 156.73 0.14 C172.45 0.39, 189.25 2.45, 204.22 7.76 C219.2 13.07, 234.15 22.18, 246.56 32.02 C258.97 41.85, 269.64 53.7, 278.66 66.76 C287.67 79.82, 295.87 95.08, 300.66 110.39 C305.44 125.7, 307.72 142.64, 307.35 158.61 C306.99 174.58, 303.72 190.99, 298.47 206.23 C293.21 221.48, 285.34 237.32, 275.81 250.07 C266.29 262.83, 254.31 273.85, 241.31 282.79 C228.32 291.73, 213.23 299.08, 197.86 303.71 C182.49 308.34, 165.06 310.84, 149.1 310.57 C133.14 310.3, 116.78 307.27, 102.08 302.09 C87.39 296.91, 73.37 289.37, 60.93 279.48 C48.49 269.59, 36.47 256.02, 27.46 242.75 C18.45 229.48, 11.37 215.19, 6.88 199.88 C2.4 184.58, 0.39 166.74, 0.57 150.92 C0.74 135.1, 2.78 119.76, 7.94 104.95 C13.1 90.14, 22 74.83, 31.53 62.04 C41.06 49.24, 51.45 37.52, 65.12 28.19 C78.78 18.86, 104.56 9.49, 113.52 6.05 C122.48 2.62, 118.16 5.04, 118.86 7.57 M131.04 2.04 C145.46 -2.56, 163.34 0.42, 179.07 2.94 C194.81 5.46, 211.54 9.67, 225.44 17.15 C239.33 24.63, 251.32 36.4, 262.45 47.82 C273.58 59.23, 285.1 71.63, 292.22 85.63 C299.34 99.62, 303.06 115.97, 305.17 131.77 C307.27 147.58, 307.5 164.59, 304.85 180.46 C302.2 196.33, 296.66 212.84, 289.24 226.98 C281.82 241.13, 271.85 254.28, 260.31 265.34 C248.78 276.4, 233.97 285.87, 220.02 293.32 C206.06 300.76, 191.87 307.44, 176.59 310 C161.31 312.56, 144.14 311.65, 128.32 308.67 C112.51 305.68, 95.74 299.84, 81.7 292.09 C67.65 284.34, 55.21 273.7, 44.06 262.17 C32.9 250.63, 21.78 236.79, 14.77 222.88 C7.76 208.97, 4.12 194.46, 1.98 178.71 C-0.15 162.95, -0.89 144.14, 1.95 128.33 C4.79 112.53, 11.8 98.01, 19.01 83.88 C26.23 69.75, 33.96 54.73, 45.23 43.57 C56.5 32.42, 72.31 24.1, 86.61 16.93 C100.91 9.76, 123.27 2.4, 131.02 0.55 C138.77 -1.3, 132.47 3.24, 133.11 5.83" stroke="#1e1e1e" stroke-width="2" fill="none"></path></g><g transform="translate(490.557451867935 210.10466085727785) rotate(0 72 20.699999999999818)"><text x="72" y="30.420703125" font-family="Helvetica, Segoe UI Emoji" font-size="36px" fill="#1e1e1e" text-anchor="middle" style="white-space: pre;" direction="ltr" dominant-baseline="alphabetic">處理邏輯</text></g></svg>