<svg version="1.1" xmlns="http://www.w3.org/2000/svg" viewBox="0 0 859.6885461773636 454.83433219648396" width="859.6885461773636" height="454.83433219648396"><!-- svg-source:excalidraw --><metadata></metadata><defs><style class="style-fonts">
      </style></defs><rect x="0" y="0" width="859.6885461773636" height="454.83433219648396" fill="#ffffff"></rect><g stroke-linecap="round" transform="translate(10 10) rotate(0 419.8442730886818 217.41716609824198)"><path d="M32 0 C313.16 1.23, 593.84 2.73, 807.69 0 M32 0 C219.95 -2.64, 408.65 -2.63, 807.69 0 M807.69 0 C828.38 -1.4, 841.43 9.78, 839.69 32 M807.69 0 C830.84 -0.07, 839.45 9.42, 839.69 32 M839.69 32 C841.19 144.44, 841.15 258.58, 839.69 402.83 M839.69 32 C841.17 164.74, 841.13 297.56, 839.69 402.83 M839.69 402.83 C841.31 424.33, 828.4 436.38, 807.69 434.83 M839.69 402.83 C839.66 426.09, 830.75 436.99, 807.69 434.83 M807.69 434.83 C615.13 435.7, 424.71 435.1, 32 434.83 M807.69 434.83 C578.48 437.07, 348.94 437.36, 32 434.83 M32 434.83 C11.86 435.06, -0.97 424.18, 0 402.83 M32 434.83 C12.46 434.09, 0.88 425.86, 0 402.83 M0 402.83 C-1.03 262.42, -1.05 123.13, 0 32 M0 402.83 C-1.4 260.13, -2.3 117.4, 0 32 M0 32 C1.59 9.2, 11.96 -1.88, 32 0 M0 32 C1.84 10.62, 9.55 1.65, 32 0" stroke="#1e1e1e" stroke-width="2" fill="none"></path></g><g transform="translate(64.73670663163648 52.05186724759551) rotate(0 36 20.699999999999818)"><text x="0" y="30.420703125" font-family="Helvetica, Segoe UI Emoji" font-size="36px" fill="#1e1e1e" text-anchor="start" style="white-space: pre;" direction="ltr" dominant-baseline="alphabetic">程式</text></g><g stroke-linecap="round" transform="translate(138.14201448345557 80.13753627532788) rotate(0 153.35535521179554 155.2344771408525)"><path d="M220.55 14.35 C235.32 18.71, 248.28 31.77, 259.66 42.9 C271.04 54.02, 281.51 66.89, 288.81 81.09 C296.12 95.29, 300.81 112.18, 303.49 128.1 C306.18 144.01, 306.9 160.88, 304.92 176.57 C302.94 192.26, 298.46 207.92, 291.62 222.22 C284.78 236.51, 274.65 250.82, 263.86 262.35 C253.07 273.88, 240.68 283.88, 226.89 291.4 C213.1 298.92, 196.74 304.42, 181.11 307.44 C165.49 310.46, 148.7 311.44, 133.12 309.53 C117.54 307.61, 101.74 302.98, 87.65 295.95 C73.56 288.92, 60.04 278.57, 48.56 267.36 C37.09 256.15, 26.32 242.58, 18.78 228.69 C11.24 214.81, 6.21 199.77, 3.32 184.05 C0.43 168.33, -0.66 150.36, 1.43 134.38 C3.51 118.39, 8.88 102.37, 15.84 88.13 C22.79 73.89, 32.22 60.59, 43.14 48.92 C54.07 37.26, 67.46 25.85, 81.37 18.15 C95.27 10.45, 111.36 5.43, 126.59 2.71 C141.83 -0.01, 155.98 -0.81, 172.77 1.82 C189.57 4.45, 217.59 14.56, 227.37 18.48 C237.16 22.41, 232.73 22.95, 231.48 25.37 M145.08 0.45 C159.69 -3.07, 175.88 1.09, 191.21 5 C206.55 8.91, 223.56 15.14, 237.09 23.93 C250.62 32.72, 262.36 45.22, 272.39 57.75 C282.42 70.28, 291.61 84.44, 297.27 99.12 C302.94 113.79, 305.73 129.95, 306.39 145.79 C307.04 161.62, 305.14 178.39, 301.22 194.11 C297.29 209.83, 291.04 226.45, 282.84 240.09 C274.64 253.73, 264.05 265.94, 252.01 275.96 C239.98 285.98, 225.71 294.36, 210.64 300.22 C195.57 306.08, 177.37 310.4, 161.59 311.09 C145.81 311.79, 130.93 308.79, 115.96 304.38 C100.99 299.97, 85.08 293.07, 71.76 284.64 C58.45 276.21, 46.41 265.73, 36.1 253.79 C25.78 241.86, 15.7 228.14, 9.87 213.02 C4.04 197.9, 2.11 179.41, 1.11 163.07 C0.12 146.72, 0.1 130.11, 3.87 114.95 C7.65 99.79, 14.88 85.43, 23.75 72.12 C32.62 58.81, 44.58 45.34, 57.09 35.1 C69.61 24.86, 84.53 16.25, 98.82 10.67 C113.12 5.1, 135.07 2.99, 142.88 1.64 C150.68 0.3, 145.53 0.14, 145.67 2.59" stroke="#e03131" stroke-width="2" fill="none"></path></g><g transform="translate(219.55875809371355 214.904661955934) rotate(0 72 20.699999999999818)"><text x="72" y="30.420703125" font-family="Helvetica, Segoe UI Emoji" font-size="36px" fill="#e03131" text-anchor="middle" style="white-space: pre;" direction="ltr" dominant-baseline="alphabetic">資料錯誤</text></g><g stroke-linecap="round" transform="translate(409.14070825767703 75.33753517667174) rotate(0 153.35535521179554 155.2344771408525)"><path d="M151.6 0.08 C166.51 -2.51, 184.23 1.73, 199.12 6.58 C214 11.42, 228.18 19.78, 240.93 29.17 C253.68 38.56, 266.03 50.28, 275.62 62.92 C285.21 75.55, 293.36 89.95, 298.45 104.96 C303.54 119.97, 305.81 137.03, 306.15 152.97 C306.49 168.91, 305.06 185.41, 300.5 200.6 C295.95 215.79, 288.03 230.9, 278.84 244.11 C269.66 257.33, 257.96 270.08, 245.4 279.87 C232.84 289.66, 218.29 297.82, 203.49 302.87 C188.69 307.92, 172.46 310.11, 156.62 310.17 C140.79 310.23, 123.6 307.74, 108.48 303.21 C93.36 298.68, 78.84 292.18, 65.88 282.98 C52.92 273.79, 40.21 260.97, 30.73 248.03 C21.25 235.1, 13.98 220.34, 9 205.39 C4.03 190.43, 1.06 174.38, 0.85 158.3 C0.64 142.23, 3.08 124.32, 7.75 108.95 C12.42 93.57, 20.07 78.95, 28.86 66.04 C37.65 53.13, 47.85 41.15, 60.49 31.48 C73.13 21.81, 88.46 13.26, 104.7 8.03 C120.94 2.81, 147.8 0.79, 157.9 0.14 C168.01 -0.51, 165.42 1.51, 165.33 4.15 M198.22 7.03 C213.32 9.09, 230.03 18.63, 243.14 28.05 C256.25 37.48, 267.44 50.56, 276.88 63.56 C286.32 76.56, 294.81 91.11, 299.77 106.05 C304.74 120.98, 306.74 137.3, 306.65 153.16 C306.56 169.02, 303.86 185.7, 299.21 201.21 C294.57 216.72, 287.59 233, 278.77 246.21 C269.94 259.43, 258.77 271.09, 246.27 280.51 C233.78 289.93, 219.12 297.61, 203.79 302.75 C188.46 307.89, 170.11 311.43, 154.3 311.36 C138.5 311.29, 123.72 307.49, 108.95 302.35 C94.19 297.21, 78.61 289.58, 65.72 280.52 C52.82 271.46, 41.32 260.39, 31.6 247.98 C21.88 235.58, 12.49 221.47, 7.37 206.09 C2.24 190.71, 1.1 172.06, 0.85 155.69 C0.6 139.32, 1.38 122.8, 5.88 107.85 C10.37 92.9, 18.33 78.88, 27.82 65.99 C37.31 53.11, 49.86 40.19, 62.83 30.55 C75.81 20.91, 91.12 13, 105.67 8.14 C120.23 3.28, 134.4 1.69, 150.16 1.38 C165.93 1.06, 192.5 4.71, 200.25 6.23 C208 7.76, 197.41 7.77, 196.66 10.52" stroke="#1e1e1e" stroke-width="2" fill="none"></path></g><g transform="translate(490.557451867935 210.10466085727785) rotate(0 72 20.699999999999818)"><text x="72" y="30.420703125" font-family="Helvetica, Segoe UI Emoji" font-size="36px" fill="#1e1e1e" text-anchor="middle" style="white-space: pre;" direction="ltr" dominant-baseline="alphabetic">處理邏輯</text></g></svg>