<svg version="1.1" xmlns="http://www.w3.org/2000/svg" viewBox="0 0 859.6885461773636 454.83433219648396" width="859.6885461773636" height="454.83433219648396"><!-- svg-source:excalidraw --><metadata></metadata><defs><style class="style-fonts">
      </style></defs><rect x="0" y="0" width="859.6885461773636" height="454.83433219648396" fill="#ffffff"></rect><g stroke-linecap="round" transform="translate(10 10) rotate(0 419.8442730886818 217.41716609824198)"><path d="M32 0 C241.73 2.65, 451.63 2.5, 807.69 0 M32 0 C271.86 -0.26, 511.4 0.25, 807.69 0 M807.69 0 C829.84 1.15, 838.59 9.86, 839.69 32 M807.69 0 C829.41 -1.02, 840.42 9.95, 839.69 32 M839.69 32 C842.85 127.39, 840.96 225.29, 839.69 402.83 M839.69 32 C840.5 160.78, 841.48 290.75, 839.69 402.83 M839.69 402.83 C838.2 424.47, 827.75 435.41, 807.69 434.83 M839.69 402.83 C840.4 422.56, 827.39 436.77, 807.69 434.83 M807.69 434.83 C616.19 431.33, 426.38 431.92, 32 434.83 M807.69 434.83 C520.16 437.58, 232.41 437.6, 32 434.83 M32 434.83 C9.03 436.53, -1.36 424.12, 0 402.83 M32 434.83 C10.64 433.34, -1.95 422.31, 0 402.83 M0 402.83 C2.2 299.55, 2.78 196.7, 0 32 M0 402.83 C-0.79 301.51, -1.16 201.53, 0 32 M0 32 C-1.61 10.39, 12.61 -1.58, 32 0 M0 32 C-1.7 11.41, 8.73 -1.94, 32 0" stroke="#1e1e1e" stroke-width="2" fill="none"></path></g><g transform="translate(64.73670663163648 52.05186724759551) rotate(0 36 20.699999999999818)"><text x="0" y="30.420703125" font-family="Helvetica, Segoe UI Emoji" font-size="36px" fill="#1e1e1e" text-anchor="start" style="white-space: pre;" direction="ltr" dominant-baseline="alphabetic">程式</text></g><g stroke-linecap="round" transform="translate(138.14814538697829 79.77581296761309) rotate(0 153.35535521179554 155.2344771408525)"><path d="M183.74 3.53 C198.78 4.01, 214.09 12.32, 227.93 20.17 C241.77 28.02, 255.89 38.97, 266.8 50.64 C277.71 62.3, 286.99 75.64, 293.4 90.15 C299.82 104.65, 303.66 121.62, 305.3 137.65 C306.94 153.68, 306.34 170.75, 303.22 186.33 C300.11 201.9, 294.15 217.29, 286.6 231.11 C279.06 244.93, 269.36 258.46, 257.95 269.26 C246.53 280.06, 232.69 289.03, 218.09 295.9 C203.49 302.76, 186.11 308.43, 170.34 310.45 C154.56 312.46, 138.9 311.48, 123.44 307.99 C107.99 304.5, 91.61 297.35, 77.61 289.51 C63.61 281.66, 50.05 272.66, 39.42 260.92 C28.79 249.17, 20.2 233.79, 13.82 219.03 C7.44 204.27, 2.9 188.06, 1.16 172.35 C-0.59 156.64, 0.34 140.46, 3.33 124.77 C6.32 109.09, 11.24 92.31, 19.1 78.24 C26.95 64.17, 38.6 51.22, 50.46 40.36 C62.32 29.5, 76.19 19.74, 90.26 13.08 C104.33 6.42, 116.71 1.38, 134.88 0.4 C153.04 -0.59, 186.18 4.79, 199.25 7.16 C212.32 9.53, 213.97 12.17, 213.3 14.62 M215.36 15.08 C229.99 18.87, 243.78 30.08, 255.65 40.48 C267.53 50.88, 278.85 63.77, 286.62 77.47 C294.39 91.17, 299.14 107.03, 302.28 122.68 C305.42 138.33, 306.99 155.16, 305.44 171.38 C303.89 187.6, 299.46 205.03, 292.96 220.02 C286.47 235, 277.07 249.68, 266.46 261.3 C255.85 272.91, 242.88 281.84, 229.3 289.73 C215.72 297.62, 200.38 305.5, 184.99 308.65 C169.6 311.79, 152.82 310.35, 136.96 308.59 C121.09 306.83, 104.46 304.55, 89.78 298.07 C75.09 291.6, 60.21 280.95, 48.83 269.75 C37.46 258.54, 29.33 244.62, 21.53 230.84 C13.74 217.06, 5.69 202.73, 2.05 187.06 C-1.59 171.38, -2.45 152.83, -0.32 136.79 C1.81 120.75, 8 105.04, 14.82 90.81 C21.64 76.58, 30.05 63.21, 40.61 51.41 C51.16 39.62, 64.34 28.03, 78.14 20.07 C91.94 12.11, 107.97 6.78, 123.41 3.64 C138.85 0.5, 155 -0.42, 170.78 1.23 C186.56 2.89, 210.4 11.24, 218.07 13.6 C225.74 15.95, 218.04 13.02, 216.8 15.37" stroke="#1e1e1e" stroke-width="2" fill="none"></path></g><g transform="translate(255.56488899723627 214.5429386482192) rotate(0 36 20.699999999999818)"><text x="36" y="30.420703125" font-family="Helvetica, Segoe UI Emoji" font-size="36px" fill="#1e1e1e" text-anchor="middle" style="white-space: pre;" direction="ltr" dominant-baseline="alphabetic">資料</text></g><g stroke-linecap="round" transform="translate(409.14070825767703 75.33753517667174) rotate(0 153.35535521179554 155.2344771408525)"><path d="M216.5 14.26 C231.24 18.35, 245.88 30.73, 257.73 41.44 C269.58 52.16, 279.99 64.67, 287.58 78.57 C295.18 92.46, 300.36 109, 303.3 124.82 C306.24 140.64, 307.05 157.71, 305.24 173.5 C303.43 189.28, 298.81 205.11, 292.44 219.54 C286.07 233.97, 277.51 248.34, 267.03 260.08 C256.54 271.83, 243.53 281.95, 229.53 290.01 C215.53 298.06, 198.58 305.08, 183.02 308.42 C167.45 311.76, 151.78 312.2, 136.12 310.03 C120.46 307.86, 103.65 302.07, 89.04 295.41 C74.44 288.76, 60.06 280.91, 48.49 270.11 C36.92 259.31, 27.2 244.76, 19.64 230.61 C12.08 216.45, 6.21 200.68, 3.16 185.18 C0.1 169.68, -0.37 153.5, 1.32 137.6 C3 121.71, 6.59 104.49, 13.26 89.81 C19.94 75.13, 30.45 61.35, 41.38 49.54 C52.31 37.74, 65.36 26.83, 78.83 18.97 C92.3 11.12, 106.79 5.39, 122.2 2.42 C137.61 -0.55, 153.58 -1.57, 171.31 1.15 C189.04 3.88, 217.61 14.21, 228.57 18.75 C239.53 23.29, 238.29 26.08, 237.07 28.39 M218.96 15.38 C233.73 19.39, 248.01 31.26, 259.38 42.12 C270.75 52.98, 279.74 66.46, 287.17 80.54 C294.59 94.61, 300.93 110.51, 303.93 126.57 C306.94 142.64, 307.32 160.67, 305.21 176.93 C303.1 193.2, 298.09 209.94, 291.26 224.15 C284.43 238.35, 275 250.62, 264.23 262.16 C253.45 273.69, 240.46 285.87, 226.62 293.35 C212.79 300.83, 196.93 304.21, 181.22 307.06 C165.51 309.92, 148.29 312.51, 132.34 310.47 C116.39 308.43, 99.46 302.23, 85.53 294.85 C71.6 287.47, 60.17 277.14, 48.77 266.19 C37.38 255.25, 25.09 243.3, 17.16 229.2 C9.23 215.1, 3.62 197.48, 1.19 181.6 C-1.24 165.71, 0.14 149.4, 2.58 133.9 C5.02 118.39, 9.04 102.94, 15.81 88.56 C22.58 74.18, 32.22 59.24, 43.21 47.64 C54.21 36.04, 67.89 26.42, 81.78 18.94 C95.66 11.46, 110.89 5.72, 126.52 2.76 C142.14 -0.2, 159.69 -0.69, 175.51 1.2 C191.33 3.1, 214.2 11.35, 221.44 14.14 C228.69 16.92, 220.23 15.16, 219 17.92" stroke="#e03131" stroke-width="2" fill="none"></path></g><g transform="translate(490.557451867935 210.10466085727785) rotate(0 72 20.699999999999818)"><text x="72" y="30.420703125" font-family="Helvetica, Segoe UI Emoji" font-size="36px" fill="#e03131" text-anchor="middle" style="white-space: pre;" direction="ltr" dominant-baseline="alphabetic">邏輯錯誤</text></g></svg>